#!OML:ASF I:\Actors\actors\Patient Classification 2\Patient 1\Session 1\actor1.ASF
:FULLY-SPECIFIED
:DEGREES
603
root -0.66797 18.7383 5.76924 2.82427 -4.04698 -0.285313
lowerback 10.0708 0.438608 10.9414
upperback -2.49899 2.22921 2.53904
thorax -8.08349 0.613012 -3.79583
lowerneck -10.3731 -8.93884 -4.77024
upperneck 6.13743 -11.4358 1.59322
head 4.2968 -5.68851 0.540197
rclavicle 6.4605e-015 3.49861e-014
rhumerus 15.8867 -16.8811 -39.7564
rradius 87.1992
rwrist 11.6838
rhand -33.3683 -44.8078
rfingers 7.12502
rthumb -6.56979 -74.6859
lclavicle 6.4605e-015 3.49861e-014
lhumerus -57.7627 -12.1142 97.5605
lradius 73.1229
lwrist 0.25311
lhand -7.09049 -23.7788
lfingers 7.12502
lthumb 18.7838 5.33427
rfemur 0 0 0
rtibia 0
rfoot 0 0
rtoes 0
lfemur -5.2584 0.154253 -13.6516
ltibia 20.3705
lfoot -20.0422 10.6192
ltoes -56.3159
604
root -0.669116 18.737 5.7677 2.76365 -3.98121 -0.369108
lowerback 10.0662 0.446018 10.8758
upperback -2.50226 2.22657 2.49235
thorax -8.08422 0.613606 -3.80921
lowerneck -10.2212 -8.95818 -4.95565
upperneck 6.11783 -11.469 1.87403
head 4.29616 -5.69696 0.668056
rclavicle -5.46658e-015 -3.02153e-014
rhumerus 15.2307 -16.8565 -39.7387
rradius 88.0142
rwrist 11.1044
rhand -33.1598 -44.8131
rfingers 7.12502
rthumb -6.36853 -74.6973
lclavicle -5.46658e-015 -3.02153e-014
lhumerus -57.7831 -12.0406 97.4844
lradius 73.0117
lwrist 0.240288
lhand -7.04326 -23.7721
lfingers 7.12502
lthumb 18.8292 5.33659
rfemur 0 0 0
rtibia 0
rfoot 0 0
rtoes 0
lfemur -5.19972 0.075772 -13.5559
ltibia 20.3676
lfoot -20.0715 10.63
ltoes -56.2804
605
root -0.669987 18.7366 5.76662 2.71372 -3.88087 -0.494893
lowerback 10.0447 0.449068 10.8661
upperback -2.51365 2.2242 2.45035
thorax -8.08306 0.611557 -3.84808
lowerneck -10.0928 -9.00432 -5.11052
upperneck 6.11856 -11.5336 2.06211
head 4.29966 -5.72464 0.75624
rclavicle -4.32357e-015 -4.45278e-014
rhumerus 14.4244 -16.7855 -39.713
rradius 89.1168
rwrist 10.3771
rhand -32.8259 -44.6454
rfingers 7.12502
rthumb -6.04609 -74.5391
lclavicle -4.32357e-015 -4.45278e-014
lhumerus -57.7944 -11.9827 97.4409
lradius 72.8736
lwrist 0.199994
lhand -7.10935 -23.6469
lfingers 7.12502
lthumb 18.7656 5.46797
rfemur 0 0 0
rtibia 0
rfoot 0 0
rtoes 0
lfemur -5.15081 -0.147904 -13.4206
ltibia 20.3612
lfoot -20.1158 10.7402
ltoes -56.2525
606
root -0.671197 18.7355 5.76692 2.68756 -3.816 -0.556189
lowerback 9.99289 0.458039 10.749
upperback -2.51645 2.21166 2.42235
thorax -8.05922 0.611755 -3.81004
lowerneck -10.0457 -9.05654 -5.12473
upperneck 6.14531 -11.5988 1.99689
head 4.29847 -5.76086 0.73329
rclavicle 1.26228e-014 3.02153e-014
rhumerus 13.5325 -16.5444 -39.7542
rradius 90.6118
rwrist 9.56928
rhand -32.4353 -44.307
rfingers 7.12502
rthumb -5.66899 -74.2112
lclavicle 1.26228e-014 3.02153e-014
lhumerus -57.728 -11.8494 97.4072
lradius 72.7276
lwrist 0.191992
lhand -7.08519 -23.4534
lfingers 7.12502
lthumb 18.7889 5.6592
rfemur 0 0 0
rtibia 0
rfoot 0 0
rtoes 0
lfemur -5.12283 -0.410651 -13.3641
ltibia 20.371
lfoot -20.2258 10.8722
ltoes -56.1977
607
root -0.67335 18.7333 5.7687 2.66439 -3.76421 -0.583851
lowerback 9.95704 0.472861 10.5732
upperback -2.53799 2.2024 2.38278
thorax -8.06562 0.613937 -3.75293
lowerneck -9.96284 -9.10812 -5.16215
upperneck 6.16973 -11.6683 2.00007
head 4.29663 -5.79672 0.738115
rclavicle -5.2181e-015 1.59028e-015
rhumerus 12.3803 -16.0317 -39.8302
rradius 92.5775
rwrist 8.79336
rhand -32.3473 -44.0682
rfingers 7.12502
rthumb -5.58407 -73.9746
lclavicle -5.2181e-015 1.59028e-015
lhumerus -57.6534 -11.7087 97.3574
lradius 72.5491
lwrist 0.135048
lhand -6.94278 -23.4089
lfingers 7.12502
lthumb 18.9258 5.69039
rfemur 0 0 0
rtibia 0
rfoot 0 0
rtoes 0
lfemur -5.09503 -0.548763 -13.3348
ltibia 20.3887
lfoot -20.3557 10.8706
ltoes -56.0782
608
root -0.675789 18.7324 5.77004 2.63789 -3.66981 -0.650916
lowerback 9.91464 0.482872 10.4624
upperback -2.55885 2.1935 2.33194
thorax -8.06547 0.613159 -3.74378
lowerneck -9.8669 -9.17216 -5.26803
upperneck 6.23154 -11.7611 2.15996
head 4.32451 -5.83833 0.803369
rclavicle 1.13804e-014 -7.95139e-015
rhumerus 11.0134 -15.2581 -39.7613
rradius 94.8322
rwrist 8.05746
rhand -32.6493 -43.6155
rfingers 7.12502
rthumb -5.87561 -73.514
lclavicle 1.13804e-014 -7.95139e-015
lhumerus -57.6436 -11.618 97.3002
lradius 72.4102
lwrist 0.0438881
lhand -6.87247 -23.439
lfingers 7.12502
lthumb 18.9935 5.65367
rfemur 0 0 0
rtibia 0
rfoot 0 0
rtoes 0
lfemur -5.06569 -0.615315 -13.2491
ltibia 20.3886
lfoot -20.3914 10.8045
ltoes -56.0132
609
root -0.677442 18.7321 5.77062 2.61239 -3.59106 -0.770865
lowerback 9.85837 0.479821 10.416
upperback -2.55793 2.1747 2.318
thorax -8.03486 0.607635 -3.72861
lowerneck -9.82526 -9.22578 -5.38
upperneck 6.68302 -11.8475 2.3973
head 4.04005 -5.86645 0.791086
rclavicle -2.56681e-014 1.11319e-014
rhumerus 9.65869 -14.2075 -39.5242
rradius 97.2263
rwrist 6.93655
rhand -32.6161 -41.0295
rfingers 7.12502
rthumb -5.84361 -70.9289
lclavicle -2.56681e-014 1.11319e-014
lhumerus -57.6677 -11.4743 97.2497
lradius 72.3354
lwrist -0.00634064
lhand -6.85507 -23.4423
lfingers 7.12502
lthumb 19.0102 5.64865
rfemur 0 0 0
rtibia 0
rfoot 0 0
rtoes 0
lfemur -5.04067 -0.724683 -13.1088
ltibia 20.3868
lfoot -20.392 10.8083
ltoes -56.0004
610
root -0.678906 18.731 5.77185 2.56811 -3.58643 -0.858216
lowerback 9.80267 0.478664 10.305
upperback -2.54375 2.1518 2.33973
thorax -7.99345 0.605183 -3.63872
lowerneck -9.79883 -9.25885 -5.48873
upperneck 6.83921 -11.889 2.46676
head 4.09618 -5.88623 0.821011
rclavicle 1.14301e-014 -1.27222e-014
rhumerus 8.29785 -12.5659 -39.1163
rradius 99.579
rwrist 6.84708
rhand -33.1843 -39.4398
rfingers 7.12502
rthumb -6.39217 -69.3233
lclavicle 1.14301e-014 -1.27222e-014
lhumerus -57.6793 -11.2661 97.2471
lradius 72.2461
lwrist -0.0911123
lhand -6.91083 -23.3976
lfingers 7.12502
lthumb 18.9566 5.69869
rfemur 0 0 0
rtibia 0
rfoot 0 0
rtoes 0
lfemur -4.99228 -0.827551 -13.0121
ltibia 20.4014
lfoot -20.4414 10.8687
ltoes -55.9258
611
root -0.680007 18.7301 5.77338 2.52093 -3.61348 -0.90237
lowerback 9.73684 0.467998 10.1421
upperback -2.53094 2.10931 2.37197
thorax -7.95181 0.595945 -3.50562
lowerneck -9.71863 -9.27022 -5.54461
upperneck 6.96166 -11.907 2.49263
head 4.12663 -5.89609 0.835727
rclavicle -1.98785e-016 -3.02153e-014
rhumerus 6.98943 -10.251 -38.581
rradius 101.696
rwrist 8.67301
rhand -34.1581 -39.5248
rfingers 7.12502
rthumb -7.3322 -69.3777
lclavicle -1.98785e-016 -3.02153e-014
lhumerus -57.7071 -11.028 97.2661
lradius 72.1633
lwrist -0.153956
lhand -6.9876 -23.338
lfingers 7.12502
lthumb 18.8827 5.76551
rfemur 0 0 0
rtibia 0
rfoot 0 0
rtoes 0
lfemur -4.92482 -0.938875 -12.9748
ltibia 20.4111
lfoot -20.5336 10.9972
ltoes -55.89
